HIERARCHY
ROOT Hips
{
	OFFSET 0.000000 0.000000 0.000000
	CHANNELS 6 Xposition Yposition Zposition Zrotation Yrotation Xrotation 
	JOINT LHipJoint
	{
		OFFSET 0.000000 0.000000 0.000000
		CHANNELS 3 Zrotation Yrotation Xrotation
		JOINT LeftUpLeg
		{
			OFFSET 1.363060 -1.794630 0.839290
			CHANNELS 3 Zrotation Yrotation Xrotation
			JOINT LeftLeg
			{
				OFFSET 2.448110 -6.726130 0.000000
				CHANNELS 3 Zrotation Yrotation Xrotation
				JOINT LeftFoot
				{
					OFFSET 2.562200 -7.039590 0.000000
					CHANNELS 3 Zrotation Yrotation Xrotation
					JOINT LeftToeBase
					{
						OFFSET 0.157640 -0.433110 2.322550
						CHANNELS 3 Zrotation Yrotation Xrotation
						End Site
						{
							OFFSET 0.000000 0.000000 0.000000
						}
					}
				}
			}
		}
	}
	JOINT RHipJoint
	{
		OFFSET 0.000000 0.000000 0.000000
		CHANNELS 3 Zrotation Yrotation Xrotation
		JOINT RightUpLeg
		{
			OFFSET -1.305520 -1.794630 0.839290
			CHANNELS 3 Zrotation Yrotation Xrotation
			JOINT RightLeg
			{
				OFFSET -2.542530 -6.985550 0.000000
				CHANNELS 3 Zrotation Yrotation Xrotation
				JOINT RightFoot
				{
					OFFSET -2.568260 -7.056230 0.000000
					CHANNELS 3 Zrotation Yrotation Xrotation
					JOINT RightToeBase
					{
						OFFSET -0.164730 -0.452590 2.363150
						CHANNELS 3 Zrotation Yrotation Xrotation
						End Site
						{
							OFFSET 0.000000 0.000000 0.000000
						}
					}
				}
			}
		}
	}
	JOINT LowerBack
	{
		OFFSET 0.000000 0.000000 0.000000
		CHANNELS 3 Zrotation Yrotation Xrotation
		JOINT Spine
		{
			OFFSET 0.028270 2.035590 -0.193380
			CHANNELS 3 Zrotation Yrotation Xrotation
			JOINT Spine1
			{
				OFFSET 0.056720 2.048850 -0.042750
				CHANNELS 3 Zrotation Yrotation Xrotation
				JOINT Neck
				{
					OFFSET 0.000000 0.000000 0.000000
					CHANNELS 3 Zrotation Yrotation Xrotation
					JOINT Neck1
					{
						OFFSET -0.054170 1.746240 0.172020
						CHANNELS 3 Zrotation Yrotation Xrotation
						JOINT Head
						{
							OFFSET 0.104070 1.761360 -0.123970
							CHANNELS 3 Zrotation Yrotation Xrotation
							End Site
							{
								OFFSET 0.000000 0.000000 0.000000
							}
						}
					}
				}
				JOINT LeftShoulder
				{
					OFFSET 0.000000 0.000000 0.000000
					CHANNELS 3 Zrotation Yrotation Xrotation
					JOINT LeftArm
					{
						OFFSET 3.362410 1.200890 -0.311210
						CHANNELS 3 Zrotation Yrotation Xrotation
						JOINT LeftForeArm
						{
							OFFSET 4.983000 -0.000000 -0.000000
							CHANNELS 3 Zrotation Yrotation Xrotation
							JOINT LeftHand
							{
								OFFSET 3.483560 -0.000000 -0.000000
								CHANNELS 3 Zrotation Yrotation Xrotation
								JOINT LeftFingerBase
								{
									OFFSET 0.000000 0.000000 0.000000
									CHANNELS 3 Zrotation Yrotation Xrotation
									JOINT LeftHandIndex1
									{
										OFFSET 0.715260 -0.000000 -0.000000
										CHANNELS 3 Zrotation Yrotation Xrotation
										End Site
										{
											OFFSET 0.000000 0.000000 0.000000
										}
									}
								}
								JOINT LThumb
								{
									OFFSET 0.000000 0.000000 0.000000
									CHANNELS 3 Zrotation Yrotation Xrotation
									End Site
									{
										OFFSET 0.000000 0.000000 0.000000
									}
								}
							}
						}
					}
				}
				JOINT RightShoulder
				{
					OFFSET 0.000000 0.000000 0.000000
					CHANNELS 3 Zrotation Yrotation Xrotation
					JOINT RightArm
					{
						OFFSET -3.136600 1.374050 -0.404650
						CHANNELS 3 Zrotation Yrotation Xrotation
						JOINT RightForeArm
						{
							OFFSET -5.241900 -0.000000 -0.000000
							CHANNELS 3 Zrotation Yrotation Xrotation
							JOINT RightHand
							{
								OFFSET -3.444170 -0.000000 -0.000000
								CHANNELS 3 Zrotation Yrotation Xrotation
								JOINT RightFingerBase
								{
									OFFSET 0.000000 0.000000 0.000000
									CHANNELS 3 Zrotation Yrotation Xrotation
									JOINT RightHandIndex1
									{
										OFFSET -0.622530 -0.000000 -0.000000
										CHANNELS 3 Zrotation Yrotation Xrotation
										End Site
										{
											OFFSET 0.000000 0.000000 0.000000
										}
									}
								}
								JOINT RThumb
								{
									OFFSET 0.000000 0.000000 0.000000
									CHANNELS 3 Zrotation Yrotation Xrotation
									End Site
									{
										OFFSET 0.000000 0.000000 0.000000
									}
								}
							}
						}
					}
				}
			}
		}
	}
}
MOTION
Frames: 9
Frame Time: 0.033333
0.679044 17.261803 -11.609772 90.475148 -26.602177 -42.181764 -96.479048 -50.691183 58.412363 -6.655280 1.518410 -47.547216 -53.419106 67.861230 -50.939250 -2.732806 16.707131 4.027009 0.941169 0.179324 -56.784877 32.423502 -8.048476 -104.796481 64.470644 -71.453120 -109.524136 98.104804 -49.328998 -117.645879 -18.444631 -8.743837 12.130873 0.078206 -0.048509 -45.845466 -82.329877 67.411125 0.232500 -176.133375 75.318006 -175.789101 -163.876366 72.503422 -170.431890 -7.421287 14.857129 5.493484 14.734527 -8.006927 -4.728464 0.046202 -0.092321 0.048397 88.784535 57.845449 -21.839200 0.861657 76.540215 -48.012717 -68.113026 48.618242 -145.773156 -16.327557 -20.624317 19.636827 5.832325 20.817215 -23.033805 -0.027486 -0.067040 0.048217 0.073557 0.066232 -0.064380 73.494737 68.704371 93.137982 51.436476 27.669290 177.920272 -2.084647 -35.016554 55.161303 13.308808 -13.182585 -15.554928 15.429891 -3.557084 -104.187725 -0.036117 0.077551 -0.063453 -0.090908 -0.047971 -0.037213 
0.633148 17.346933 -10.949776 90.442300 -26.707864 -41.837509 -98.005162 -51.542107 58.504924 -5.609207 4.046589 -46.752886 -53.551213 68.876391 -46.916612 -7.697583 20.304303 13.449578 1.260539 0.173478 -56.096125 31.606587 -9.518123 -106.328343 70.891475 -73.156226 -115.482389 100.665322 -49.573362 -115.404792 -20.679640 -7.013366 9.417117 -0.114182 -0.061042 -44.387805 -80.697368 67.461235 2.633732 -173.216981 75.012606 -173.076597 -165.160677 72.260167 -172.295007 -7.152419 16.962111 6.333786 17.656799 -13.062317 -1.908902 0.056969 -0.036960 0.073143 87.910114 57.920284 -23.083585 10.487457 77.508818 -39.362109 -59.908286 45.349796 -138.510234 -16.463947 -23.526556 12.252832 9.532750 19.829570 -22.146358 -0.071643 -0.067476 0.067478 0.046598 0.044821 -0.071480 75.450108 67.653221 95.492511 50.495895 30.228066 176.378072 -5.148166 -37.724883 57.761610 11.682465 -13.448239 -9.864705 35.933922 8.940080 -105.179478 -0.057208 0.048436 -0.060686 -0.012250 -0.069636 -0.052222 
0.539447 17.439131 -10.333999 90.855393 -27.508661 -41.319077 -97.122832 -52.030040 55.672579 -3.175404 6.157437 -45.115282 -59.765102 70.878613 -46.441879 -9.813731 23.630349 18.861690 1.853305 0.172916 -52.996985 31.190570 -10.587326 -106.673778 75.811664 -73.780612 -120.171748 102.028192 -51.324027 -113.216948 -20.959666 -7.918563 6.655064 -0.169258 -0.072322 -42.392860 -79.168917 68.094836 4.509994 -170.286590 75.283031 -169.346174 -162.725059 71.431100 -170.513242 -7.847057 14.869925 6.673884 21.383569 -12.243532 -1.277360 0.069604 -0.055934 0.047802 84.880938 57.878148 -25.675546 19.775127 79.589176 -32.394403 -51.349792 40.899179 -130.678011 -8.570931 -20.419130 4.275803 5.436678 10.317130 -18.988120 -0.054863 -0.066209 0.063167 0.089503 0.077107 -0.063216 77.721712 66.185382 97.321436 49.193978 33.311319 175.186845 -8.981222 -38.650651 64.996254 3.422645 -9.067135 -5.563064 38.503419 10.799659 -94.365013 -0.046332 0.033676 -0.062816 -0.083095 -0.071294 -0.061032 
0.420027 17.516283 -9.754012 90.557167 -27.277337 -40.209153 -96.832535 -51.314357 55.170880 -0.434015 7.590778 -44.748479 -70.054953 72.923325 -50.456354 -11.282474 24.863063 21.612443 2.093140 0.139828 -48.953329 31.336504 -10.957708 -106.334140 72.889565 -73.240085 -118.101819 104.106630 -52.325698 -111.975278 -20.808590 -9.811305 4.086364 0.066851 -0.093718 -41.311412 -76.098303 68.602213 8.694086 -165.891237 76.030367 -164.879925 -163.945129 71.597014 -171.955997 -7.216779 13.992986 7.967890 22.255706 -9.714452 0.276928 0.088435 -0.056981 0.068618 83.525028 58.191696 -24.247375 18.876154 80.834968 -33.105059 -43.692847 38.591664 -127.261735 -10.989404 -18.629617 5.417791 -1.311600 5.709956 -16.427736 -0.085050 -0.056606 0.070599 0.052544 0.047951 -0.050500 81.346495 64.995621 101.659950 48.331356 37.013479 171.499075 -11.871964 -34.887167 75.937485 3.451640 -7.118507 -8.086426 38.006338 13.961262 -90.188274 -0.046367 0.078992 -0.037728 -0.066843 -0.044386 -0.041893 
0.297551 17.574852 -9.198689 90.729915 -26.834575 -38.984531 -96.554649 -50.896140 55.630658 2.031663 9.445120 -46.061112 -81.713916 73.518966 -55.129103 -9.362869 23.459933 18.258647 2.095442 0.093364 -44.169063 31.722962 -10.177437 -105.862093 69.798374 -70.998418 -115.789314 103.749569 -51.980937 -108.794835 -19.077150 -11.699200 1.791791 0.235372 -0.072387 -40.142658 -74.089477 67.892516 11.711474 -166.580285 75.969652 -164.881803 -165.243982 72.594348 -173.155477 -10.374233 11.506998 8.663484 25.010707 -9.075611 -0.134907 0.051128 -0.084384 0.070100 82.762963 57.857531 -22.306594 24.911174 82.409799 -27.233772 -37.221923 37.559972 -124.067566 -8.197016 -12.932876 8.454051 -5.273015 6.952052 -15.851911 -0.056349 -0.054711 0.062484 0.060690 0.034198 -0.082732 84.936218 63.996197 104.611365 49.030935 39.843150 170.436079 -11.124638 -27.995465 82.384823 5.177719 -2.231883 -7.115327 27.878434 17.890427 -87.336522 -0.082142 0.059858 -0.083785 -0.077075 -0.072940 -0.057457 
0.174840 17.624041 -8.665914 90.667503 -26.546848 -38.417614 -94.952929 -50.656245 55.461058 4.086522 10.856422 -47.489030 -87.885940 73.233971 -55.225059 -9.400980 20.608979 8.574592 1.818725 0.039383 -40.062607 31.844629 -9.908012 -104.751165 67.710124 -68.330907 -115.164875 102.710600 -52.350000 -106.559059 -17.148202 -13.260446 -0.207626 0.442406 -0.048481 -39.748069 -73.223424 68.276519 13.374264 -166.678870 76.211767 -165.260535 -166.880828 73.720780 -174.393017 -10.237061 11.538855 10.532290 25.502005 -2.417341 -1.276039 0.055164 -0.031858 0.045048 83.728124 59.193274 -18.683731 25.543401 82.473817 -24.304512 -31.928868 37.156609 -124.312597 -7.712841 -9.189059 8.815905 -3.410954 11.716062 -11.799877 -0.040069 -0.058917 0.065192 0.080828 0.091069 -0.050981 87.742850 63.424790 107.997152 48.766758 43.887996 167.700094 -11.664327 -21.589050 88.577196 7.520594 1.598896 -6.337293 26.628131 15.723868 -83.440404 -0.029351 0.076165 -0.049455 -0.066882 -0.058252 -0.044620 
0.056181 17.668877 -8.153170 91.353031 -26.168209 -38.769675 -93.169013 -49.617689 54.622015 6.229804 11.358890 -49.537701 -87.467288 73.413805 -51.490151 -6.986588 18.256534 1.745032 1.741432 0.002101 -35.823527 32.679128 -9.914287 -103.664678 62.678131 -65.055685 -110.878370 101.875259 -52.856295 -105.833553 -18.244353 -13.591323 -1.400192 0.475647 -0.023597 -39.175841 -75.241971 68.588302 12.141019 -168.346283 76.665077 -166.564005 -167.989759 73.227173 -175.069831 -11.426524 8.163328 12.578205 25.949396 0.642949 -1.995893 0.080741 -0.084763 0.069986 82.629131 59.844268 -16.703274 34.747911 82.888916 -12.713716 -29.200626 37.618056 -123.085022 -4.104440 -5.894039 10.123991 -0.564729 15.247612 -10.331360 -0.096062 -0.076362 0.083210 0.040882 0.034966 -0.053660 88.032502 63.215353 109.851193 48.685206 47.647223 166.207405 -12.947482 -20.102752 93.388249 7.721737 6.694640 -8.092379 20.555054 13.970471 -72.433346 -0.063432 0.052563 -0.043652 -0.028407 -0.060675 -0.072965 
-0.043174 17.707562 -7.651160 91.549987 -25.945723 -38.217008 -93.494547 -49.084636 55.150116 9.236936 13.170710 -50.530602 -85.537399 73.615908 -49.081778 -4.887066 18.790830 -0.849817 1.316153 -0.045831 -33.481484 32.771608 -10.207300 -103.657663 56.626839 -62.957861 -105.683299 102.297998 -52.891383 -108.362487 -18.454945 -14.306334 -2.049997 0.607021 -0.011284 -38.883900 -78.923892 69.502695 8.949136 -168.300287 76.673841 -166.916109 -167.604414 73.968910 -174.556074 -12.031915 7.889264 15.457899 24.369341 4.806305 -2.849868 0.061354 -0.084639 0.105820 82.705290 60.507572 -12.645921 43.379185 84.388428 -0.314866 -26.803151 37.419812 -122.132070 -6.072107 1.832071 13.099811 1.940838 16.569216 -5.200165 -0.041262 -0.071530 0.089011 0.084594 0.077670 -0.076463 88.626565 63.916225 112.977201 48.369424 51.029059 162.149293 -15.756943 -20.381170 98.750588 8.212984 8.905708 -9.007157 11.904170 8.883575 -57.582908 -0.078079 0.079341 -0.060080 -0.091973 -0.072755 -0.073924 
-0.116522 17.739250 -7.151628 91.893819 -25.808371 -37.726573 -92.999078 -48.589617 54.668791 11.582734 14.188349 -51.482427 -81.431622 74.456380 -46.974382 -3.681019 17.081820 -4.188500 1.215110 -0.035932 -30.583190 32.582300 -10.862172 -103.821997 53.888800 -60.517340 -102.984076 100.981526 -52.512106 -109.588702 -16.919871 -14.895728 -2.738171 0.565225 0.026746 -40.018413 -81.778059 68.837283 6.122497 -169.736467 76.035374 -168.440313 -166.709284 73.674056 -174.372185 -10.911899 7.411226 16.680435 23.012003 8.828827 -1.883413 0.094739 -0.077227 0.071575 83.615789 61.015301 -9.637978 51.357060 84.428937 10.502242 -25.314856 37.341081 -121.178603 -4.010626 8.530008 13.417158 1.552620 15.231513 -10.491293 -0.126725 -0.109846 0.080178 0.045312 0.050491 -0.062918 87.540401 64.156874 113.347181 48.114521 54.258774 159.552614 -19.688909 -21.908343 102.948821 4.789080 7.832087 -6.602706 8.204968 7.463479 -46.160564 -0.076535 0.077055 -0.064073 -0.063737 -0.072459 -0.065258 
